<mxfile host="app.diagrams.net" modified="2020-04-15T12:37:37.809Z" agent="5.0 (Macintosh; Intel Mac OS X 10_15_4) AppleWebKit/537.36 (KHTML, like Gecko) Chrome/80.0.3987.163 Safari/537.36" etag="BnfZ6OtHOw6SYl31kqYf" version="12.9.10" type="github">
  <diagram id="8M1C9OhhfYc6tsk-v1qm" name="Page-1">
    <mxGraphModel dx="1577" dy="875" grid="1" gridSize="10" guides="1" tooltips="1" connect="1" arrows="1" fold="1" page="1" pageScale="1" pageWidth="827" pageHeight="1169" math="0" shadow="0">
      <root>
        <mxCell id="0" />
        <mxCell id="1" parent="0" />
        <mxCell id="ikZcJIUEuHoxfdRocXcF-1" value="&lt;b&gt;&lt;font style=&quot;font-size: 31px&quot;&gt;Descriptif des fonctionnalités&lt;/font&gt;&lt;/b&gt;" style="text;html=1;strokeColor=none;fillColor=none;align=center;verticalAlign=middle;whiteSpace=wrap;rounded=0;" vertex="1" parent="1">
          <mxGeometry x="570" y="30" width="490" height="90" as="geometry" />
        </mxCell>
        <mxCell id="ikZcJIUEuHoxfdRocXcF-2" value="PIZZAIOLO" style="shape=umlActor;verticalLabelPosition=bottom;labelBackgroundColor=#ffffff;verticalAlign=top;html=1;outlineConnect=0;fillColor=#ffe6cc;strokeColor=#d79b00;" vertex="1" parent="1">
          <mxGeometry x="100" y="585" width="30" height="60" as="geometry" />
        </mxCell>
        <mxCell id="ikZcJIUEuHoxfdRocXcF-3" value="CLIENT" style="shape=umlActor;verticalLabelPosition=bottom;labelBackgroundColor=#ffffff;verticalAlign=top;html=1;outlineConnect=0;fillColor=#dae8fc;strokeColor=#6c8ebf;" vertex="1" parent="1">
          <mxGeometry x="190" y="160" width="30" height="60" as="geometry" />
        </mxCell>
        <mxCell id="ikZcJIUEuHoxfdRocXcF-4" value="SYSTÈME" style="shape=umlActor;verticalLabelPosition=bottom;labelBackgroundColor=#ffffff;verticalAlign=top;html=1;outlineConnect=0;fillColor=#d5e8d4;strokeColor=#82b366;" vertex="1" parent="1">
          <mxGeometry x="1390" y="220" width="30" height="60" as="geometry" />
        </mxCell>
        <mxCell id="ikZcJIUEuHoxfdRocXcF-5" value="RESPONSABLE &lt;br&gt;DU MAGASIN" style="shape=umlActor;verticalLabelPosition=bottom;labelBackgroundColor=#ffffff;verticalAlign=top;html=1;outlineConnect=0;fillColor=#f5f5f5;strokeColor=#666666;fontColor=#333333;" vertex="1" parent="1">
          <mxGeometry x="1390" y="980" width="30" height="60" as="geometry" />
        </mxCell>
        <mxCell id="ikZcJIUEuHoxfdRocXcF-7" value="LIVREUR" style="shape=umlActor;verticalLabelPosition=bottom;labelBackgroundColor=#ffffff;verticalAlign=top;html=1;outlineConnect=0;fillColor=#f8cecc;strokeColor=#b85450;" vertex="1" parent="1">
          <mxGeometry x="190" y="1020" width="30" height="60" as="geometry" />
        </mxCell>
        <mxCell id="ikZcJIUEuHoxfdRocXcF-8" value="ADMINISTRATEUR" style="shape=umlActor;verticalLabelPosition=bottom;labelBackgroundColor=#ffffff;verticalAlign=top;html=1;outlineConnect=0;fillColor=#e1d5e7;strokeColor=#9673a6;" vertex="1" parent="1">
          <mxGeometry x="1450" y="585" width="30" height="60" as="geometry" />
        </mxCell>
        <mxCell id="ikZcJIUEuHoxfdRocXcF-62" value="" style="rounded=1;whiteSpace=wrap;html=1;" vertex="1" parent="1">
          <mxGeometry x="300" y="220" width="1050" height="820" as="geometry" />
        </mxCell>
        <mxCell id="ikZcJIUEuHoxfdRocXcF-63" value="&lt;font style=&quot;font-size: 22px&quot;&gt;Système de vente en ligne&lt;/font&gt;" style="text;html=1;strokeColor=none;fillColor=none;align=center;verticalAlign=middle;whiteSpace=wrap;rounded=0;" vertex="1" parent="1">
          <mxGeometry x="605" y="170" width="440" height="60" as="geometry" />
        </mxCell>
        <mxCell id="ikZcJIUEuHoxfdRocXcF-67" value="" style="ellipse;whiteSpace=wrap;html=1;" vertex="1" parent="1">
          <mxGeometry x="655" y="270" width="340" height="80" as="geometry" />
        </mxCell>
        <mxCell id="ikZcJIUEuHoxfdRocXcF-68" value="&lt;font style=&quot;font-size: 22px&quot;&gt;Accéder au catalogue&lt;/font&gt;" style="text;html=1;strokeColor=none;fillColor=none;align=center;verticalAlign=middle;whiteSpace=wrap;rounded=0;" vertex="1" parent="1">
          <mxGeometry x="710" y="300" width="230" height="20" as="geometry" />
        </mxCell>
        <mxCell id="ikZcJIUEuHoxfdRocXcF-70" value="" style="ellipse;whiteSpace=wrap;html=1;" vertex="1" parent="1">
          <mxGeometry x="655" y="410" width="340" height="80" as="geometry" />
        </mxCell>
      </root>
    </mxGraphModel>
  </diagram>
</mxfile>
